<svg xmlns="http://www.w3.org/2000/svg" xmlns:xlink="http://www.w3.org/1999/xlink" width="351" zoomAndPan="magnify" viewBox="0 0 263.25 230.249992" height="307" preserveAspectRatio="xMidYMid meet" version="1.0"><defs><g/><clipPath id="d99c007224"><path d="M 107.867188 95.324219 L 155.710938 95.324219 L 155.710938 137.1875 L 107.867188 137.1875 Z M 107.867188 95.324219 " clip-rule="nonzero"/></clipPath></defs><g fill="#ffffff" fill-opacity="1"><g transform="translate(90.692285, 153.443511)"><g><path d="M -7.359375 1.296875 C -7.390625 1.253906 -7.410156 1.203125 -7.421875 1.140625 C -7.429688 1.078125 -7.425781 1.023438 -7.40625 0.984375 L -5.890625 -2.21875 C -5.867188 -2.257812 -5.832031 -2.3125 -5.78125 -2.375 C -5.738281 -2.445312 -5.695312 -2.5 -5.65625 -2.53125 L -4.03125 -4.046875 C -3.988281 -4.085938 -3.9375 -4.101562 -3.875 -4.09375 C -3.820312 -4.09375 -3.773438 -4.070312 -3.734375 -4.03125 L -3.15625 -3.40625 C -3.113281 -3.363281 -3.09375 -3.3125 -3.09375 -3.25 C -3.101562 -3.195312 -3.128906 -3.148438 -3.171875 -3.109375 L -3.9375 -2.40625 L -2.234375 -0.578125 L -1.46875 -1.28125 C -1.425781 -1.320312 -1.375 -1.335938 -1.3125 -1.328125 C -1.257812 -1.328125 -1.210938 -1.304688 -1.171875 -1.265625 L -0.59375 -0.640625 C -0.5625 -0.597656 -0.546875 -0.550781 -0.546875 -0.5 C -0.546875 -0.445312 -0.566406 -0.398438 -0.609375 -0.359375 L -2.234375 1.15625 C -2.273438 1.1875 -2.328125 1.222656 -2.390625 1.265625 C -2.460938 1.316406 -2.523438 1.347656 -2.578125 1.359375 L -5.875 2.625 C -5.925781 2.644531 -5.984375 2.644531 -6.046875 2.625 C -6.109375 2.613281 -6.15625 2.59375 -6.1875 2.5625 Z M -3.1875 0.25 L -4.828125 -1.515625 L -5.984375 0.9375 L -5.71875 1.234375 Z M -3.1875 0.25 "/></g></g></g><g fill="#ffffff" fill-opacity="1"><g transform="translate(84.897842, 146.927537)"><g><path d="M -8.296875 -1.015625 C -8.316406 -1.054688 -8.320312 -1.117188 -8.3125 -1.203125 C -8.300781 -1.242188 -8.273438 -1.28125 -8.234375 -1.3125 L -3.375 -4.609375 C -3.332031 -4.640625 -3.28125 -4.65625 -3.21875 -4.65625 C -3.15625 -4.625 -3.113281 -4.585938 -3.09375 -4.546875 L -2.609375 -3.859375 C -2.578125 -3.804688 -2.566406 -3.753906 -2.578125 -3.703125 C -2.597656 -3.648438 -2.628906 -3.609375 -2.671875 -3.578125 L -5.90625 -1.375 L -4.5 -1.421875 C -4.4375 -1.429688 -4.378906 -1.425781 -4.328125 -1.40625 C -4.265625 -1.363281 -4.21875 -1.316406 -4.1875 -1.265625 L -3.96875 -0.9375 C -3.925781 -0.882812 -3.898438 -0.828125 -3.890625 -0.765625 C -3.890625 -0.703125 -3.90625 -0.640625 -3.9375 -0.578125 L -4.5 0.703125 L -1.265625 -1.5 C -1.222656 -1.53125 -1.164062 -1.535156 -1.09375 -1.515625 C -1.039062 -1.503906 -1 -1.476562 -0.96875 -1.4375 L -0.484375 -0.71875 C -0.460938 -0.675781 -0.453125 -0.628906 -0.453125 -0.578125 C -0.472656 -0.523438 -0.503906 -0.484375 -0.546875 -0.453125 L -5.40625 2.84375 C -5.445312 2.875 -5.492188 2.882812 -5.546875 2.875 C -5.617188 2.875 -5.664062 2.851562 -5.6875 2.8125 L -6.171875 2.09375 L -6.203125 2.03125 C -6.210938 2 -6.210938 1.960938 -6.203125 1.921875 C -6.222656 1.859375 -6.222656 1.796875 -6.203125 1.734375 L -5.171875 -0.375 L -7.515625 -0.203125 C -7.566406 -0.179688 -7.617188 -0.191406 -7.671875 -0.234375 L -7.75 -0.265625 C -7.78125 -0.273438 -7.800781 -0.296875 -7.8125 -0.328125 Z M -8.296875 -1.015625 "/></g></g></g><g fill="#ffffff" fill-opacity="1"><g transform="translate(80.150329, 139.613552)"><g><path d="M -7.40625 -0.953125 C -7.4375 -0.992188 -7.445312 -1.046875 -7.4375 -1.109375 C -7.425781 -1.171875 -7.398438 -1.222656 -7.359375 -1.265625 L -4.953125 -3.875 C -4.929688 -3.90625 -4.882812 -3.941406 -4.8125 -3.984375 C -4.75 -4.035156 -4.695312 -4.070312 -4.65625 -4.09375 L -2.640625 -5.046875 C -2.585938 -5.078125 -2.535156 -5.082031 -2.484375 -5.0625 C -2.429688 -5.039062 -2.390625 -5.007812 -2.359375 -4.96875 L -2 -4.1875 C -1.976562 -4.144531 -1.972656 -4.09375 -1.984375 -4.03125 C -2.003906 -3.976562 -2.039062 -3.9375 -2.09375 -3.90625 L -3.03125 -3.46875 L -1.953125 -1.21875 L -1.015625 -1.65625 C -0.960938 -1.6875 -0.910156 -1.691406 -0.859375 -1.671875 C -0.804688 -1.648438 -0.769531 -1.613281 -0.75 -1.5625 L -0.375 -0.796875 C -0.351562 -0.742188 -0.351562 -0.691406 -0.375 -0.640625 C -0.394531 -0.585938 -0.429688 -0.546875 -0.484375 -0.515625 L -2.5 0.4375 C -2.539062 0.457031 -2.597656 0.476562 -2.671875 0.5 C -2.753906 0.519531 -2.816406 0.53125 -2.859375 0.53125 L -6.390625 0.765625 C -6.453125 0.765625 -6.507812 0.75 -6.5625 0.71875 C -6.613281 0.6875 -6.648438 0.648438 -6.671875 0.609375 Z M -3.125 -0.71875 L -4.15625 -2.890625 L -6 -0.890625 L -5.828125 -0.515625 Z M -3.125 -0.71875 "/></g></g></g><g fill="#ffffff" fill-opacity="1"><g transform="translate(76.557933, 131.668232)"><g><path d="M -7.09375 -2.484375 C -7.144531 -2.472656 -7.195312 -2.476562 -7.25 -2.5 C -7.3125 -2.53125 -7.347656 -2.570312 -7.359375 -2.625 L -7.609375 -3.453125 C -7.617188 -3.503906 -7.609375 -3.550781 -7.578125 -3.59375 C -7.554688 -3.644531 -7.519531 -3.675781 -7.46875 -3.6875 L -1.84375 -5.390625 C -1.800781 -5.410156 -1.75 -5.40625 -1.6875 -5.375 C -1.632812 -5.351562 -1.601562 -5.316406 -1.59375 -5.265625 L -1.34375 -4.4375 C -1.332031 -4.382812 -1.335938 -4.332031 -1.359375 -4.28125 C -1.390625 -4.238281 -1.425781 -4.207031 -1.46875 -4.1875 L -3.53125 -3.578125 L -4.953125 -0.53125 L -0.75 -1.796875 C -0.707031 -1.816406 -0.660156 -1.8125 -0.609375 -1.78125 C -0.554688 -1.75 -0.519531 -1.707031 -0.5 -1.65625 L -0.25 -0.84375 C -0.238281 -0.789062 -0.242188 -0.738281 -0.265625 -0.6875 C -0.296875 -0.632812 -0.332031 -0.597656 -0.375 -0.578125 L -6 1.125 C -6.050781 1.132812 -6.101562 1.125 -6.15625 1.09375 C -6.21875 1.0625 -6.253906 1.019531 -6.265625 0.96875 L -6.515625 0.15625 C -6.535156 0.101562 -6.539062 0.046875 -6.53125 -0.015625 C -6.519531 -0.0859375 -6.503906 -0.148438 -6.484375 -0.203125 L -5.140625 -3.078125 Z M -7.09375 -2.484375 "/></g></g></g><g fill="#ffffff" fill-opacity="1"><g transform="translate(74.202541, 123.272694)"><g><path d="M -7.015625 -4.65625 C -7.023438 -4.707031 -7.007812 -4.75 -6.96875 -4.78125 C -6.9375 -4.832031 -6.894531 -4.859375 -6.84375 -4.859375 L -0.953125 -5.328125 C -0.898438 -5.328125 -0.859375 -5.316406 -0.828125 -5.296875 C -0.773438 -5.265625 -0.742188 -5.21875 -0.734375 -5.15625 L -0.625 -4.328125 C -0.613281 -4.265625 -0.625 -4.203125 -0.65625 -4.140625 C -0.664062 -4.078125 -0.695312 -4.023438 -0.75 -3.984375 L -2.125 -2.921875 L -0.5 -2.25 C -0.445312 -2.238281 -0.40625 -2.203125 -0.375 -2.140625 C -0.320312 -2.097656 -0.289062 -2.046875 -0.28125 -1.984375 L -0.171875 -1.15625 C -0.160156 -1.101562 -0.171875 -1.050781 -0.203125 -1 C -0.234375 -0.957031 -0.273438 -0.929688 -0.328125 -0.921875 L -6.09375 0.265625 C -6.144531 0.273438 -6.195312 0.269531 -6.25 0.25 C -6.289062 0.207031 -6.316406 0.164062 -6.328125 0.125 L -6.453125 -0.734375 C -6.460938 -0.785156 -6.445312 -0.832031 -6.40625 -0.875 C -6.375 -0.925781 -6.332031 -0.957031 -6.28125 -0.96875 L -2.21875 -1.765625 L -3.25 -2.25 C -3.300781 -2.269531 -3.347656 -2.304688 -3.390625 -2.359375 C -3.429688 -2.410156 -3.457031 -2.460938 -3.46875 -2.515625 L -3.53125 -2.921875 C -3.539062 -2.972656 -3.523438 -3.035156 -3.484375 -3.109375 C -3.460938 -3.160156 -3.4375 -3.207031 -3.40625 -3.25 L -2.515625 -4 L -6.65625 -3.625 C -6.707031 -3.625 -6.757812 -3.640625 -6.8125 -3.671875 C -6.851562 -3.703125 -6.878906 -3.75 -6.890625 -3.8125 Z M -7.015625 -4.65625 "/></g></g></g><g fill="#ffffff" fill-opacity="1"><g transform="translate(73.13782, 114.618234)"><g><path d="M -6.234375 -4.125 C -6.234375 -4.351562 -6.1875 -4.566406 -6.09375 -4.765625 C -6.007812 -4.960938 -5.894531 -5.132812 -5.75 -5.28125 C -5.601562 -5.425781 -5.429688 -5.539062 -5.234375 -5.625 C -5.035156 -5.707031 -4.828125 -5.75 -4.609375 -5.75 L -1.5625 -5.71875 C -1.34375 -5.71875 -1.132812 -5.671875 -0.9375 -5.578125 C -0.75 -5.492188 -0.578125 -5.378906 -0.421875 -5.234375 C -0.273438 -5.085938 -0.160156 -4.914062 -0.078125 -4.71875 C -0.00390625 -4.519531 0.03125 -4.304688 0.03125 -4.078125 L 0.015625 -2.296875 C 0.015625 -2.066406 -0.0234375 -1.851562 -0.109375 -1.65625 C -0.191406 -1.46875 -0.304688 -1.300781 -0.453125 -1.15625 C -0.609375 -1.007812 -0.785156 -0.894531 -0.984375 -0.8125 C -1.179688 -0.726562 -1.390625 -0.6875 -1.609375 -0.6875 L -4.65625 -0.71875 C -4.875 -0.71875 -5.078125 -0.757812 -5.265625 -0.84375 C -5.460938 -0.9375 -5.632812 -1.054688 -5.78125 -1.203125 C -5.925781 -1.347656 -6.039062 -1.515625 -6.125 -1.703125 C -6.207031 -1.898438 -6.25 -2.113281 -6.25 -2.34375 Z M -4.625 -4.5 C -4.726562 -4.5 -4.8125 -4.460938 -4.875 -4.390625 C -4.945312 -4.316406 -4.984375 -4.226562 -4.984375 -4.125 L -5 -2.34375 C -5 -2.238281 -4.960938 -2.148438 -4.890625 -2.078125 C -4.828125 -2.015625 -4.742188 -1.984375 -4.640625 -1.984375 L -1.59375 -1.953125 C -1.488281 -1.953125 -1.398438 -1.984375 -1.328125 -2.046875 C -1.265625 -2.117188 -1.234375 -2.207031 -1.234375 -2.3125 L -1.21875 -4.09375 C -1.21875 -4.195312 -1.25 -4.285156 -1.3125 -4.359375 C -1.382812 -4.429688 -1.472656 -4.46875 -1.578125 -4.46875 Z M -4.625 -4.5 "/></g></g></g><g fill="#ffffff" fill-opacity="1"><g transform="translate(73.388049, 105.902111)"><g><path d="M 0.703125 -5.5625 C 0.765625 -5.582031 0.8125 -5.578125 0.84375 -5.546875 C 0.875 -5.515625 0.882812 -5.476562 0.875 -5.4375 L 0.71875 -4.453125 C 0.707031 -4.398438 0.679688 -4.351562 0.640625 -4.3125 C 0.597656 -4.269531 0.546875 -4.238281 0.484375 -4.21875 L -1.984375 -3.546875 L -2.171875 -2.3125 L 0.109375 -1.9375 C 0.160156 -1.925781 0.203125 -1.898438 0.234375 -1.859375 C 0.273438 -1.828125 0.289062 -1.78125 0.28125 -1.71875 L 0.140625 -0.859375 C 0.128906 -0.804688 0.0976562 -0.757812 0.046875 -0.71875 C 0.00390625 -0.6875 -0.0390625 -0.675781 -0.09375 -0.6875 L -5.890625 -1.625 C -5.941406 -1.632812 -5.984375 -1.660156 -6.015625 -1.703125 C -6.054688 -1.753906 -6.070312 -1.804688 -6.0625 -1.859375 L -5.5625 -5.03125 C -5.519531 -5.25 -5.441406 -5.445312 -5.328125 -5.625 C -5.210938 -5.8125 -5.066406 -5.96875 -4.890625 -6.09375 C -4.722656 -6.21875 -4.535156 -6.300781 -4.328125 -6.34375 C -4.128906 -6.394531 -3.914062 -6.398438 -3.6875 -6.359375 L -3.171875 -6.28125 C -2.992188 -6.25 -2.820312 -6.191406 -2.65625 -6.109375 C -2.5 -6.035156 -2.363281 -5.9375 -2.25 -5.8125 C -2.132812 -5.6875 -2.035156 -5.539062 -1.953125 -5.375 C -1.878906 -5.21875 -1.835938 -5.050781 -1.828125 -4.875 Z M -3.078125 -4.625 C -3.054688 -4.726562 -3.070312 -4.816406 -3.125 -4.890625 C -3.1875 -4.972656 -3.269531 -5.023438 -3.375 -5.046875 L -3.890625 -5.125 C -3.992188 -5.144531 -4.085938 -5.125 -4.171875 -5.0625 C -4.253906 -5.007812 -4.304688 -4.929688 -4.328125 -4.828125 L -4.65625 -2.703125 L -3.40625 -2.5 Z M -3.078125 -4.625 "/></g></g></g><g fill="#ffffff" fill-opacity="1"><g transform="translate(74.94753, 97.322998)"><g><path d="M 1.5625 -5.40625 C 1.613281 -5.425781 1.648438 -5.421875 1.671875 -5.390625 C 1.703125 -5.359375 1.707031 -5.316406 1.6875 -5.265625 L 1.375 -4.265625 C 1.351562 -4.210938 1.316406 -4.164062 1.265625 -4.125 C 1.222656 -4.082031 1.175781 -4.050781 1.125 -4.03125 L -1.515625 -3.484375 L -1.78125 -2.65625 L 0.421875 -1.953125 C 0.460938 -1.929688 0.492188 -1.894531 0.515625 -1.84375 C 0.546875 -1.789062 0.554688 -1.742188 0.546875 -1.703125 L 0.28125 -0.875 C 0.257812 -0.8125 0.222656 -0.769531 0.171875 -0.75 C 0.117188 -0.726562 0.0703125 -0.726562 0.03125 -0.75 L -5.5625 -2.546875 C -5.613281 -2.554688 -5.65625 -2.582031 -5.6875 -2.625 C -5.71875 -2.675781 -5.722656 -2.734375 -5.703125 -2.796875 L -5.4375 -3.625 C -5.425781 -3.664062 -5.390625 -3.695312 -5.328125 -3.71875 C -5.273438 -3.75 -5.222656 -3.757812 -5.171875 -3.75 L -2.96875 -3.046875 L -2.703125 -3.875 L -4.53125 -5.859375 C -4.570312 -5.898438 -4.597656 -5.953125 -4.609375 -6.015625 C -4.628906 -6.078125 -4.628906 -6.132812 -4.609375 -6.1875 L -4.296875 -7.1875 C -4.273438 -7.238281 -4.242188 -7.269531 -4.203125 -7.28125 C -4.171875 -7.289062 -4.132812 -7.273438 -4.09375 -7.234375 L -1.78125 -4.71875 Z M 1.5625 -5.40625 "/></g></g></g><g fill="#ffffff" fill-opacity="1"><g transform="translate(77.78071, 89.076393)"><g><path d="M -1.875 -6.109375 C -1.894531 -6.054688 -1.929688 -6.019531 -1.984375 -6 C -2.035156 -5.988281 -2.082031 -5.992188 -2.125 -6.015625 L -2.1875 -6.046875 C -2.28125 -6.085938 -2.375 -6.09375 -2.46875 -6.0625 C -2.5625 -6.039062 -2.632812 -5.984375 -2.6875 -5.890625 L -3.484375 -4.28125 C -3.523438 -4.195312 -3.53125 -4.109375 -3.5 -4.015625 C -3.46875 -3.921875 -3.40625 -3.851562 -3.3125 -3.8125 L -2.828125 -3.578125 C -2.734375 -3.523438 -2.640625 -3.515625 -2.546875 -3.546875 C -2.460938 -3.578125 -2.398438 -3.632812 -2.359375 -3.71875 L -1.5625 -5.328125 C -1.457031 -5.515625 -1.320312 -5.675781 -1.15625 -5.8125 C -0.988281 -5.957031 -0.804688 -6.0625 -0.609375 -6.125 C -0.410156 -6.195312 -0.207031 -6.226562 0 -6.21875 C 0.207031 -6.207031 0.40625 -6.148438 0.59375 -6.046875 L 1.078125 -5.8125 C 1.285156 -5.71875 1.457031 -5.585938 1.59375 -5.421875 C 1.726562 -5.265625 1.832031 -5.082031 1.90625 -4.875 C 1.976562 -4.675781 2.003906 -4.46875 1.984375 -4.25 C 1.972656 -4.039062 1.914062 -3.84375 1.8125 -3.65625 L 1.015625 -2.046875 C 0.921875 -1.847656 0.789062 -1.679688 0.625 -1.546875 C 0.46875 -1.410156 0.289062 -1.3125 0.09375 -1.25 C -0.101562 -1.1875 -0.304688 -1.15625 -0.515625 -1.15625 C -0.734375 -1.164062 -0.945312 -1.21875 -1.15625 -1.3125 L -1.21875 -1.34375 C -1.257812 -1.363281 -1.285156 -1.40625 -1.296875 -1.46875 C -1.316406 -1.53125 -1.316406 -1.582031 -1.296875 -1.625 L -0.921875 -2.390625 C -0.890625 -2.441406 -0.847656 -2.472656 -0.796875 -2.484375 C -0.742188 -2.503906 -0.695312 -2.503906 -0.65625 -2.484375 L -0.59375 -2.453125 C -0.5 -2.410156 -0.40625 -2.40625 -0.3125 -2.4375 C -0.21875 -2.46875 -0.148438 -2.523438 -0.109375 -2.609375 L 0.6875 -4.21875 C 0.738281 -4.3125 0.75 -4.398438 0.71875 -4.484375 C 0.6875 -4.578125 0.625 -4.644531 0.53125 -4.6875 L 0.046875 -4.921875 C -0.0351562 -4.972656 -0.125 -4.984375 -0.21875 -4.953125 C -0.3125 -4.929688 -0.382812 -4.875 -0.4375 -4.78125 L -1.234375 -3.171875 C -1.328125 -2.972656 -1.453125 -2.804688 -1.609375 -2.671875 C -1.773438 -2.535156 -1.957031 -2.429688 -2.15625 -2.359375 C -2.351562 -2.296875 -2.5625 -2.265625 -2.78125 -2.265625 C -3 -2.273438 -3.203125 -2.332031 -3.390625 -2.4375 L -3.875 -2.671875 C -4.070312 -2.773438 -4.238281 -2.910156 -4.375 -3.078125 C -4.507812 -3.242188 -4.613281 -3.425781 -4.6875 -3.625 C -4.757812 -3.820312 -4.785156 -4.023438 -4.765625 -4.234375 C -4.753906 -4.441406 -4.703125 -4.644531 -4.609375 -4.84375 L -3.8125 -6.453125 C -3.707031 -6.640625 -3.570312 -6.800781 -3.40625 -6.9375 C -3.25 -7.082031 -3.070312 -7.1875 -2.875 -7.25 C -2.675781 -7.320312 -2.46875 -7.351562 -2.25 -7.34375 C -2.039062 -7.332031 -1.835938 -7.273438 -1.640625 -7.171875 L -1.578125 -7.140625 C -1.535156 -7.117188 -1.503906 -7.082031 -1.484375 -7.03125 C -1.460938 -6.976562 -1.460938 -6.925781 -1.484375 -6.875 Z M -1.875 -6.109375 "/></g></g></g><g fill="#ffffff" fill-opacity="1"><g transform="translate(81.822388, 81.349013)"><g/></g></g><g fill="#ffffff" fill-opacity="1"><g transform="translate(86.976301, 74.326394)"><g/></g></g><g fill="#ffffff" fill-opacity="1"><g transform="translate(93.127775, 68.159339)"><g><path d="M 0.609375 -8.40625 C 0.648438 -8.4375 0.695312 -8.441406 0.75 -8.421875 C 0.8125 -8.410156 0.851562 -8.382812 0.875 -8.34375 L 4.1875 -3.46875 C 4.207031 -3.414062 4.21875 -3.363281 4.21875 -3.3125 C 4.207031 -3.257812 4.175781 -3.210938 4.125 -3.171875 L 3.46875 -2.671875 C 3.414062 -2.628906 3.359375 -2.609375 3.296875 -2.609375 C 3.222656 -2.585938 3.160156 -2.59375 3.109375 -2.625 L 1.5 -3.28125 L 1.71875 -1.546875 C 1.726562 -1.484375 1.71875 -1.425781 1.6875 -1.375 C 1.664062 -1.3125 1.628906 -1.257812 1.578125 -1.21875 L 0.921875 -0.71875 C 0.878906 -0.6875 0.832031 -0.671875 0.78125 -0.671875 C 0.726562 -0.679688 0.6875 -0.707031 0.65625 -0.75 L -3.234375 -5.171875 C -3.265625 -5.210938 -3.285156 -5.257812 -3.296875 -5.3125 C -3.273438 -5.375 -3.242188 -5.421875 -3.203125 -5.453125 L -2.53125 -5.984375 C -2.488281 -6.015625 -2.441406 -6.023438 -2.390625 -6.015625 C -2.316406 -6.003906 -2.265625 -5.976562 -2.234375 -5.9375 L 0.453125 -2.796875 L 0.359375 -3.9375 C 0.359375 -4 0.367188 -4.054688 0.390625 -4.109375 C 0.410156 -4.171875 0.441406 -4.21875 0.484375 -4.25 L 0.8125 -4.5 C 0.851562 -4.53125 0.910156 -4.550781 0.984375 -4.5625 C 1.046875 -4.570312 1.101562 -4.566406 1.15625 -4.546875 L 2.25 -4.140625 L -0.109375 -7.578125 C -0.128906 -7.617188 -0.140625 -7.671875 -0.140625 -7.734375 C -0.140625 -7.796875 -0.113281 -7.84375 -0.0625 -7.875 Z M 0.609375 -8.40625 "/></g></g></g><g fill="#ffffff" fill-opacity="1"><g transform="translate(100.14412, 62.981626)"><g><path d="M 2.375 -7.28125 C 2.40625 -7.238281 2.410156 -7.191406 2.390625 -7.140625 C 2.378906 -7.085938 2.347656 -7.046875 2.296875 -7.015625 L -0.65625 -5.390625 L -0.046875 -4.28125 L 2.625 -5.765625 C 2.675781 -5.785156 2.726562 -5.789062 2.78125 -5.78125 C 2.84375 -5.769531 2.882812 -5.738281 2.90625 -5.6875 L 3.328125 -4.921875 C 3.359375 -4.878906 3.363281 -4.832031 3.34375 -4.78125 C 3.320312 -4.726562 3.285156 -4.691406 3.234375 -4.671875 L 0.5625 -3.1875 L 1.171875 -2.078125 L 4.125 -3.703125 C 4.175781 -3.734375 4.226562 -3.742188 4.28125 -3.734375 C 4.332031 -3.722656 4.375 -3.691406 4.40625 -3.640625 L 4.8125 -2.890625 C 4.832031 -2.847656 4.835938 -2.796875 4.828125 -2.734375 C 4.816406 -2.679688 4.785156 -2.640625 4.734375 -2.609375 L 0.84375 -0.46875 C 0.789062 -0.4375 0.738281 -0.429688 0.6875 -0.453125 C 0.632812 -0.472656 0.597656 -0.503906 0.578125 -0.546875 L -2.265625 -5.6875 C -2.296875 -5.738281 -2.300781 -5.789062 -2.28125 -5.84375 C -2.269531 -5.894531 -2.238281 -5.9375 -2.1875 -5.96875 L 1.703125 -8.109375 C 1.753906 -8.140625 1.800781 -8.144531 1.84375 -8.125 C 1.894531 -8.113281 1.9375 -8.082031 1.96875 -8.03125 Z M 2.375 -7.28125 "/></g></g></g><g fill="#ffffff" fill-opacity="1"><g transform="translate(107.85187, 58.923235)"><g><path d="M 1.65625 -7.296875 C 1.863281 -7.378906 2.070312 -7.414062 2.28125 -7.40625 C 2.488281 -7.394531 2.6875 -7.34375 2.875 -7.25 C 3.0625 -7.164062 3.226562 -7.046875 3.375 -6.890625 C 3.519531 -6.734375 3.632812 -6.550781 3.71875 -6.34375 L 3.90625 -5.84375 C 3.96875 -5.664062 4 -5.488281 4 -5.3125 C 4.007812 -5.132812 3.988281 -4.96875 3.9375 -4.8125 C 4.082031 -4.707031 4.207031 -4.585938 4.3125 -4.453125 C 4.425781 -4.316406 4.515625 -4.160156 4.578125 -3.984375 L 4.765625 -3.5 C 4.847656 -3.28125 4.878906 -3.066406 4.859375 -2.859375 C 4.847656 -2.648438 4.800781 -2.445312 4.71875 -2.25 C 4.632812 -2.0625 4.515625 -1.894531 4.359375 -1.75 C 4.210938 -1.601562 4.035156 -1.488281 3.828125 -1.40625 L 0.828125 -0.296875 C 0.765625 -0.273438 0.707031 -0.28125 0.65625 -0.3125 C 0.601562 -0.34375 0.566406 -0.378906 0.546875 -0.421875 L -1.484375 -5.9375 C -1.503906 -5.988281 -1.5 -6.035156 -1.46875 -6.078125 C -1.445312 -6.128906 -1.40625 -6.164062 -1.34375 -6.1875 Z M 0.5 -4.203125 L 2.515625 -4.9375 C 2.609375 -4.976562 2.675781 -5.039062 2.71875 -5.125 C 2.757812 -5.207031 2.765625 -5.300781 2.734375 -5.40625 L 2.546875 -5.90625 C 2.503906 -6 2.4375 -6.066406 2.34375 -6.109375 C 2.257812 -6.160156 2.171875 -6.164062 2.078125 -6.125 L 0.0625 -5.390625 Z M 3.40625 -3.546875 C 3.375 -3.648438 3.3125 -3.722656 3.21875 -3.765625 C 3.132812 -3.804688 3.046875 -3.804688 2.953125 -3.765625 L 0.9375 -3.03125 L 1.375 -1.84375 L 3.390625 -2.578125 C 3.484375 -2.617188 3.546875 -2.679688 3.578125 -2.765625 C 3.617188 -2.859375 3.625 -2.957031 3.59375 -3.0625 Z M 3.40625 -3.546875 "/></g></g></g><g fill="#ffffff" fill-opacity="1"><g transform="translate(116.082293, 56.070143)"><g/></g></g><g fill="#ffffff" fill-opacity="1"><g transform="translate(124.647804, 54.486255)"><g><path d="M 0.875 -0.046875 C 0.820312 -0.046875 0.773438 -0.0625 0.734375 -0.09375 C 0.691406 -0.132812 0.664062 -0.179688 0.65625 -0.234375 L 0.359375 -6.09375 C 0.359375 -6.144531 0.375 -6.191406 0.40625 -6.234375 C 0.445312 -6.285156 0.492188 -6.3125 0.546875 -6.3125 L 3.75 -6.484375 C 3.96875 -6.492188 4.179688 -6.460938 4.390625 -6.390625 C 4.597656 -6.316406 4.773438 -6.207031 4.921875 -6.0625 C 5.078125 -5.925781 5.203125 -5.765625 5.296875 -5.578125 C 5.390625 -5.390625 5.445312 -5.179688 5.46875 -4.953125 L 5.625 -1.921875 C 5.632812 -1.691406 5.601562 -1.476562 5.53125 -1.28125 C 5.457031 -1.082031 5.347656 -0.90625 5.203125 -0.75 C 5.066406 -0.59375 4.898438 -0.46875 4.703125 -0.375 C 4.503906 -0.28125 4.296875 -0.226562 4.078125 -0.21875 Z M 1.875 -1.34375 L 4.015625 -1.46875 C 4.117188 -1.46875 4.203125 -1.503906 4.265625 -1.578125 C 4.328125 -1.660156 4.359375 -1.753906 4.359375 -1.859375 L 4.203125 -4.890625 C 4.191406 -4.992188 4.148438 -5.078125 4.078125 -5.140625 C 4.003906 -5.210938 3.914062 -5.25 3.8125 -5.25 L 1.671875 -5.125 Z M 1.875 -1.34375 "/></g></g></g><g fill="#ffffff" fill-opacity="1"><g transform="translate(133.363459, 54.210942)"><g><path d="M 6.09375 -4.625 C 6.09375 -4.570312 6.070312 -4.53125 6.03125 -4.5 C 5.988281 -4.46875 5.9375 -4.457031 5.875 -4.46875 L 2.515625 -4.796875 L 2.390625 -3.546875 L 5.4375 -3.25 C 5.488281 -3.238281 5.53125 -3.210938 5.5625 -3.171875 C 5.601562 -3.128906 5.625 -3.082031 5.625 -3.03125 L 5.53125 -2.15625 C 5.53125 -2.101562 5.503906 -2.0625 5.453125 -2.03125 C 5.410156 -2 5.363281 -1.988281 5.3125 -2 L 2.265625 -2.296875 L 2.140625 -1.046875 L 5.5 -0.71875 C 5.5625 -0.707031 5.609375 -0.679688 5.640625 -0.640625 C 5.671875 -0.597656 5.6875 -0.546875 5.6875 -0.484375 L 5.59375 0.359375 C 5.59375 0.410156 5.570312 0.453125 5.53125 0.484375 C 5.488281 0.523438 5.4375 0.539062 5.375 0.53125 L 0.96875 0.09375 C 0.90625 0.09375 0.859375 0.0664062 0.828125 0.015625 C 0.796875 -0.0234375 0.78125 -0.0703125 0.78125 -0.125 L 1.359375 -5.96875 C 1.367188 -6.019531 1.394531 -6.0625 1.4375 -6.09375 C 1.476562 -6.132812 1.53125 -6.15625 1.59375 -6.15625 L 6 -5.71875 C 6.0625 -5.707031 6.109375 -5.675781 6.140625 -5.625 C 6.171875 -5.582031 6.179688 -5.535156 6.171875 -5.484375 Z M 6.09375 -4.625 "/></g></g></g><g fill="#ffffff" fill-opacity="1"><g transform="translate(142.012415, 55.248052)"><g><path d="M 3.90625 1 L 2.25 0.578125 C 2.207031 0.566406 2.164062 0.535156 2.125 0.484375 C 2.082031 0.429688 2.054688 0.378906 2.046875 0.328125 L 1.59375 -3.171875 C 1.582031 -3.222656 1.578125 -3.285156 1.578125 -3.359375 C 1.585938 -3.441406 1.597656 -3.503906 1.609375 -3.546875 L 2.15625 -5.71875 C 2.164062 -5.769531 2.191406 -5.8125 2.234375 -5.84375 C 2.273438 -5.875 2.328125 -5.878906 2.390625 -5.859375 L 3.234375 -5.65625 C 3.273438 -5.632812 3.3125 -5.597656 3.34375 -5.546875 C 3.375 -5.503906 3.382812 -5.457031 3.375 -5.40625 L 2.890625 -3.46875 C 2.867188 -3.414062 2.851562 -3.351562 2.84375 -3.28125 C 2.84375 -3.207031 2.847656 -3.144531 2.859375 -3.09375 L 3.203125 -0.484375 L 3.59375 -0.375 L 5.15625 -2.515625 C 5.1875 -2.546875 5.210938 -2.597656 5.234375 -2.671875 C 5.265625 -2.742188 5.289062 -2.804688 5.3125 -2.859375 L 5.796875 -4.796875 C 5.804688 -4.847656 5.835938 -4.882812 5.890625 -4.90625 C 5.941406 -4.9375 5.992188 -4.945312 6.046875 -4.9375 L 6.875 -4.71875 C 6.925781 -4.707031 6.960938 -4.675781 6.984375 -4.625 C 7.015625 -4.582031 7.023438 -4.535156 7.015625 -4.484375 L 6.46875 -2.3125 C 6.457031 -2.269531 6.4375 -2.207031 6.40625 -2.125 C 6.375 -2.050781 6.34375 -2 6.3125 -1.96875 L 4.21875 0.875 C 4.1875 0.925781 4.140625 0.960938 4.078125 0.984375 C 4.023438 1.003906 3.96875 1.007812 3.90625 1 Z M 3.90625 1 "/></g></g></g><g fill="#ffffff" fill-opacity="1"><g transform="translate(150.40705, 57.574059)"><g><path d="M 7.203125 -2.625 C 7.179688 -2.570312 7.144531 -2.535156 7.09375 -2.515625 C 7.050781 -2.492188 7.003906 -2.492188 6.953125 -2.515625 L 3.84375 -3.828125 L 3.34375 -2.671875 L 6.15625 -1.484375 C 6.207031 -1.460938 6.242188 -1.425781 6.265625 -1.375 C 6.285156 -1.320312 6.285156 -1.273438 6.265625 -1.234375 L 5.9375 -0.421875 C 5.914062 -0.378906 5.878906 -0.347656 5.828125 -0.328125 C 5.773438 -0.304688 5.722656 -0.304688 5.671875 -0.328125 L 2.859375 -1.515625 L 2.359375 -0.359375 L 5.46875 0.953125 C 5.519531 0.972656 5.554688 1.007812 5.578125 1.0625 C 5.597656 1.113281 5.597656 1.164062 5.578125 1.21875 L 5.25 2 C 5.226562 2.050781 5.191406 2.085938 5.140625 2.109375 C 5.085938 2.128906 5.035156 2.128906 4.984375 2.109375 L 0.890625 0.375 C 0.835938 0.351562 0.800781 0.316406 0.78125 0.265625 C 0.757812 0.210938 0.757812 0.160156 0.78125 0.109375 L 3.078125 -5.296875 C 3.097656 -5.347656 3.132812 -5.382812 3.1875 -5.40625 C 3.238281 -5.425781 3.289062 -5.425781 3.34375 -5.40625 L 7.4375 -3.671875 C 7.488281 -3.648438 7.523438 -3.613281 7.546875 -3.5625 C 7.566406 -3.507812 7.566406 -3.457031 7.546875 -3.40625 Z M 7.203125 -2.625 "/></g></g></g><g fill="#ffffff" fill-opacity="1"><g transform="translate(158.356573, 61.133474)"><g><path d="M 4.609375 2.84375 L 0.96875 0.59375 C 0.925781 0.570312 0.894531 0.53125 0.875 0.46875 C 0.863281 0.40625 0.875 0.351562 0.90625 0.3125 L 3.984375 -4.6875 C 4.015625 -4.726562 4.054688 -4.753906 4.109375 -4.765625 C 4.171875 -4.773438 4.222656 -4.769531 4.265625 -4.75 L 5 -4.296875 C 5.039062 -4.265625 5.066406 -4.21875 5.078125 -4.15625 C 5.097656 -4.101562 5.09375 -4.054688 5.0625 -4.015625 L 2.53125 0.09375 L 5.265625 1.78125 C 5.328125 1.8125 5.363281 1.851562 5.375 1.90625 C 5.382812 1.957031 5.375 2.007812 5.34375 2.0625 L 4.90625 2.78125 C 4.875 2.820312 4.832031 2.847656 4.78125 2.859375 C 4.726562 2.878906 4.671875 2.875 4.609375 2.84375 Z M 4.609375 2.84375 "/></g></g></g><g fill="#ffffff" fill-opacity="1"><g transform="translate(165.687102, 65.855398)"><g><path d="M 7.15625 -2.140625 C 7.332031 -1.992188 7.46875 -1.820312 7.5625 -1.625 C 7.664062 -1.4375 7.722656 -1.238281 7.734375 -1.03125 C 7.753906 -0.820312 7.726562 -0.613281 7.65625 -0.40625 C 7.59375 -0.207031 7.492188 -0.0234375 7.359375 0.140625 L 5.390625 2.453125 C 5.242188 2.617188 5.078125 2.75 4.890625 2.84375 C 4.703125 2.945312 4.503906 3.007812 4.296875 3.03125 C 4.085938 3.050781 3.878906 3.023438 3.671875 2.953125 C 3.472656 2.890625 3.285156 2.785156 3.109375 2.640625 L 1.75 1.484375 C 1.570312 1.335938 1.4375 1.171875 1.34375 0.984375 C 1.25 0.796875 1.195312 0.597656 1.1875 0.390625 C 1.175781 0.179688 1.195312 -0.0234375 1.25 -0.234375 C 1.3125 -0.441406 1.414062 -0.628906 1.5625 -0.796875 L 3.53125 -3.109375 C 3.664062 -3.273438 3.832031 -3.40625 4.03125 -3.5 C 4.226562 -3.59375 4.425781 -3.648438 4.625 -3.671875 C 4.832031 -3.691406 5.035156 -3.671875 5.234375 -3.609375 C 5.429688 -3.546875 5.617188 -3.441406 5.796875 -3.296875 Z M 6.40625 -0.671875 C 6.46875 -0.753906 6.492188 -0.84375 6.484375 -0.9375 C 6.484375 -1.039062 6.441406 -1.125 6.359375 -1.1875 L 5 -2.34375 C 4.925781 -2.40625 4.835938 -2.429688 4.734375 -2.421875 C 4.640625 -2.421875 4.5625 -2.378906 4.5 -2.296875 L 2.53125 0.015625 C 2.457031 0.0976562 2.425781 0.1875 2.4375 0.28125 C 2.445312 0.382812 2.488281 0.46875 2.5625 0.53125 L 3.921875 1.6875 C 4.003906 1.75 4.09375 1.773438 4.1875 1.765625 C 4.28125 1.765625 4.363281 1.722656 4.4375 1.640625 Z M 6.40625 -0.671875 "/></g></g></g><g fill="#ffffff" fill-opacity="1"><g transform="translate(172.223275, 71.627023)"><g><path d="M 7.40625 -1.046875 C 7.5625 -0.878906 7.671875 -0.691406 7.734375 -0.484375 C 7.804688 -0.285156 7.832031 -0.0820312 7.8125 0.125 C 7.789062 0.34375 7.734375 0.546875 7.640625 0.734375 C 7.554688 0.921875 7.429688 1.085938 7.265625 1.234375 L 6.859375 1.59375 C 6.691406 1.726562 6.503906 1.828125 6.296875 1.890625 C 6.097656 1.960938 5.894531 1.992188 5.6875 1.984375 C 5.476562 1.972656 5.273438 1.914062 5.078125 1.8125 C 4.890625 1.71875 4.71875 1.585938 4.5625 1.421875 L 3.15625 -0.1875 L 1.421875 1.328125 C 1.378906 1.367188 1.332031 1.382812 1.28125 1.375 C 1.226562 1.375 1.179688 1.351562 1.140625 1.3125 L 0.578125 0.65625 C 0.535156 0.613281 0.515625 0.5625 0.515625 0.5 C 0.523438 0.445312 0.550781 0.398438 0.59375 0.359375 L 5.015625 -3.484375 C 5.054688 -3.523438 5.101562 -3.539062 5.15625 -3.53125 C 5.21875 -3.53125 5.269531 -3.507812 5.3125 -3.46875 Z M 6.4375 0.296875 C 6.507812 0.234375 6.550781 0.148438 6.5625 0.046875 C 6.570312 -0.0546875 6.539062 -0.144531 6.46875 -0.21875 L 5.0625 -1.828125 L 4.109375 -1 L 5.515625 0.609375 C 5.585938 0.679688 5.671875 0.722656 5.765625 0.734375 C 5.867188 0.742188 5.957031 0.71875 6.03125 0.65625 Z M 6.4375 0.296875 "/></g></g></g><g fill="#ffffff" fill-opacity="1"><g transform="translate(177.816118, 78.316816)"><g><path d="M 8.25 1.28125 C 8.269531 1.320312 8.28125 1.378906 8.28125 1.453125 C 8.269531 1.492188 8.238281 1.53125 8.1875 1.5625 L 3.234375 4.703125 C 3.191406 4.734375 3.140625 4.75 3.078125 4.75 C 3.015625 4.71875 2.972656 4.679688 2.953125 4.640625 L 2.5 3.9375 C 2.457031 3.882812 2.445312 3.832031 2.46875 3.78125 C 2.488281 3.726562 2.519531 3.6875 2.5625 3.65625 L 5.859375 1.5625 L 4.453125 1.5625 C 4.390625 1.5625 4.332031 1.546875 4.28125 1.515625 C 4.21875 1.484375 4.171875 1.441406 4.140625 1.390625 L 3.9375 1.0625 C 3.90625 1.007812 3.878906 0.945312 3.859375 0.875 C 3.867188 0.8125 3.882812 0.753906 3.90625 0.703125 L 4.515625 -0.5625 L 1.203125 1.53125 C 1.160156 1.5625 1.109375 1.566406 1.046875 1.546875 C 0.992188 1.535156 0.953125 1.507812 0.921875 1.46875 L 0.46875 0.734375 C 0.4375 0.691406 0.425781 0.644531 0.4375 0.59375 C 0.457031 0.53125 0.488281 0.484375 0.53125 0.453125 L 5.484375 -2.6875 C 5.535156 -2.71875 5.585938 -2.722656 5.640625 -2.703125 C 5.691406 -2.691406 5.734375 -2.664062 5.765625 -2.625 L 6.21875 -1.890625 L 6.265625 -1.84375 C 6.273438 -1.8125 6.273438 -1.773438 6.265625 -1.734375 C 6.273438 -1.671875 6.269531 -1.609375 6.25 -1.546875 L 5.15625 0.515625 L 7.5 0.421875 C 7.550781 0.410156 7.601562 0.425781 7.65625 0.46875 L 7.734375 0.5 C 7.753906 0.519531 7.773438 0.546875 7.796875 0.578125 Z M 8.25 1.28125 "/></g></g></g><g fill="#ffffff" fill-opacity="1"><g transform="translate(182.336668, 85.77586)"><g><path d="M 7.046875 3.046875 C 6.992188 3.066406 6.941406 3.0625 6.890625 3.03125 C 6.847656 3.007812 6.8125 2.972656 6.78125 2.921875 L 5.421875 -0.171875 L 4.265625 0.34375 L 5.5 3.140625 C 5.519531 3.191406 5.519531 3.242188 5.5 3.296875 C 5.476562 3.347656 5.445312 3.382812 5.40625 3.40625 L 4.59375 3.75 C 4.550781 3.769531 4.503906 3.769531 4.453125 3.75 C 4.398438 3.726562 4.363281 3.691406 4.34375 3.640625 L 3.109375 0.84375 L 1.953125 1.359375 L 3.3125 4.453125 C 3.34375 4.503906 3.347656 4.554688 3.328125 4.609375 C 3.316406 4.660156 3.28125 4.695312 3.21875 4.71875 L 2.453125 5.0625 C 2.398438 5.082031 2.347656 5.082031 2.296875 5.0625 C 2.242188 5.039062 2.203125 5.003906 2.171875 4.953125 L 0.390625 0.890625 C 0.367188 0.828125 0.367188 0.769531 0.390625 0.71875 C 0.410156 0.675781 0.445312 0.644531 0.5 0.625 L 5.875 -1.75 C 5.925781 -1.769531 5.976562 -1.769531 6.03125 -1.75 C 6.082031 -1.738281 6.117188 -1.703125 6.140625 -1.640625 L 7.921875 2.421875 C 7.953125 2.472656 7.957031 2.523438 7.9375 2.578125 C 7.914062 2.628906 7.878906 2.664062 7.828125 2.6875 Z M 7.046875 3.046875 "/></g></g></g><g fill="#ffffff" fill-opacity="1"><g transform="translate(185.683647, 93.81525)"><g><path d="M 7.03125 2.703125 C 7.070312 2.679688 7.117188 2.6875 7.171875 2.71875 C 7.222656 2.75 7.253906 2.789062 7.265625 2.84375 L 7.5 3.671875 C 7.507812 3.722656 7.5 3.769531 7.46875 3.8125 C 7.4375 3.863281 7.398438 3.898438 7.359375 3.921875 L 1.6875 5.453125 C 1.632812 5.460938 1.582031 5.453125 1.53125 5.421875 C 1.476562 5.398438 1.445312 5.363281 1.4375 5.3125 L 1.203125 4.484375 C 1.191406 4.429688 1.203125 4.378906 1.234375 4.328125 C 1.265625 4.273438 1.304688 4.242188 1.359375 4.234375 L 3.421875 3.671875 L 4.9375 0.671875 L 0.703125 1.828125 C 0.648438 1.835938 0.597656 1.828125 0.546875 1.796875 C 0.492188 1.765625 0.460938 1.722656 0.453125 1.671875 L 0.234375 0.84375 C 0.210938 0.789062 0.21875 0.738281 0.25 0.6875 C 0.28125 0.644531 0.320312 0.617188 0.375 0.609375 L 6.046875 -0.921875 C 6.085938 -0.941406 6.132812 -0.9375 6.1875 -0.90625 C 6.238281 -0.882812 6.273438 -0.847656 6.296875 -0.796875 L 6.515625 0.03125 C 6.523438 0.0820312 6.523438 0.144531 6.515625 0.21875 C 6.515625 0.300781 6.5 0.363281 6.46875 0.40625 L 5.046875 3.234375 Z M 7.03125 2.703125 "/></g></g></g><g fill="#ffffff" fill-opacity="1"><g transform="translate(187.782961, 102.278476)"><g><path d="M 6.84375 4.765625 C 6.851562 4.816406 6.84375 4.863281 6.8125 4.90625 C 6.78125 4.957031 6.738281 4.984375 6.6875 4.984375 L 5.828125 5.09375 C 5.773438 5.09375 5.726562 5.070312 5.6875 5.03125 C 5.644531 5 5.617188 4.957031 5.609375 4.90625 L 5.421875 3.21875 L 0.625 3.765625 C 0.570312 3.765625 0.523438 3.75 0.484375 3.71875 C 0.441406 3.695312 0.414062 3.65625 0.40625 3.59375 L 0.3125 2.734375 C 0.300781 2.679688 0.3125 2.632812 0.34375 2.59375 C 0.382812 2.550781 0.429688 2.53125 0.484375 2.53125 L 5.28125 1.984375 L 5.09375 0.3125 C 5.09375 0.257812 5.109375 0.207031 5.140625 0.15625 C 5.171875 0.113281 5.210938 0.09375 5.265625 0.09375 L 6.125 -0.015625 C 6.175781 -0.015625 6.222656 0 6.265625 0.03125 C 6.304688 0.0703125 6.328125 0.117188 6.328125 0.171875 Z M 6.84375 4.765625 "/></g></g></g><g fill="#ffffff" fill-opacity="1"><g transform="translate(188.581558, 110.964961)"><g/></g></g><g clip-path="url(#d99c007224)"><path fill="#fbd88c" d="M 110.101562 116.226562 L 120.917969 127.042969 L 119.796875 128.164062 L 107.867188 116.226562 L 119.800781 104.292969 L 120.921875 105.414062 Z M 135.46875 95.339844 L 136.960938 95.714844 L 128.003906 137.113281 L 126.515625 136.738281 Z M 143.671875 104.292969 L 155.605469 116.226562 L 143.671875 128.164062 L 142.550781 127.042969 L 153.367188 116.226562 L 142.550781 105.414062 Z M 143.671875 104.292969 " fill-opacity="1" fill-rule="nonzero"/></g><g fill="#ffffff" fill-opacity="1"><g transform="translate(109.004219, 176.509027)"><g><path d="M 7.078125 -3.109375 C 7.054688 -3.066406 7.019531 -3.035156 6.96875 -3.015625 C 6.914062 -2.992188 6.867188 -2.988281 6.828125 -3 L 3.578125 -4.09375 L 3.171875 -2.890625 L 6.125 -1.90625 C 6.175781 -1.882812 6.210938 -1.851562 6.234375 -1.8125 C 6.265625 -1.769531 6.269531 -1.722656 6.25 -1.671875 L 5.96875 -0.84375 C 5.957031 -0.789062 5.925781 -0.753906 5.875 -0.734375 C 5.820312 -0.710938 5.769531 -0.710938 5.71875 -0.734375 L 2.765625 -1.71875 L 2.03125 0.484375 C 2.019531 0.523438 1.984375 0.554688 1.921875 0.578125 C 1.867188 0.609375 1.820312 0.613281 1.78125 0.59375 L 0.96875 0.328125 C 0.914062 0.304688 0.875 0.269531 0.84375 0.21875 C 0.820312 0.164062 0.816406 0.117188 0.828125 0.078125 L 2.703125 -5.5 C 2.722656 -5.539062 2.757812 -5.578125 2.8125 -5.609375 C 2.875 -5.640625 2.929688 -5.644531 2.984375 -5.625 L 7.234375 -4.1875 C 7.273438 -4.175781 7.304688 -4.140625 7.328125 -4.078125 C 7.359375 -4.023438 7.363281 -3.976562 7.34375 -3.9375 Z M 7.078125 -3.109375 "/></g></g></g><g fill="#ffffff" fill-opacity="1"><g transform="translate(118.129288, 179.337312)"><g><path d="M 5.5625 0.78125 C 5.570312 0.84375 5.5625 0.890625 5.53125 0.921875 C 5.507812 0.953125 5.472656 0.960938 5.421875 0.953125 L 4.453125 0.78125 C 4.398438 0.769531 4.347656 0.742188 4.296875 0.703125 C 4.253906 0.660156 4.222656 0.609375 4.203125 0.546875 L 3.578125 -1.9375 L 2.34375 -2.140625 L 1.9375 0.140625 C 1.925781 0.191406 1.898438 0.234375 1.859375 0.265625 C 1.816406 0.296875 1.765625 0.304688 1.703125 0.296875 L 0.859375 0.15625 C 0.804688 0.144531 0.757812 0.113281 0.71875 0.0625 C 0.6875 0.0078125 0.675781 -0.0390625 0.6875 -0.09375 L 1.71875 -5.875 C 1.71875 -5.925781 1.742188 -5.96875 1.796875 -6 C 1.847656 -6.03125 1.898438 -6.039062 1.953125 -6.03125 L 5.109375 -5.484375 C 5.335938 -5.441406 5.539062 -5.359375 5.71875 -5.234375 C 5.894531 -5.117188 6.039062 -4.972656 6.15625 -4.796875 C 6.28125 -4.628906 6.363281 -4.441406 6.40625 -4.234375 C 6.457031 -4.035156 6.460938 -3.820312 6.421875 -3.59375 L 6.328125 -3.078125 C 6.296875 -2.898438 6.238281 -2.734375 6.15625 -2.578125 C 6.070312 -2.421875 5.96875 -2.28125 5.84375 -2.15625 C 5.71875 -2.039062 5.570312 -1.945312 5.40625 -1.875 C 5.238281 -1.800781 5.078125 -1.757812 4.921875 -1.75 Z M 4.671875 -3 C 4.773438 -2.976562 4.867188 -2.992188 4.953125 -3.046875 C 5.035156 -3.109375 5.085938 -3.191406 5.109375 -3.296875 L 5.203125 -3.8125 C 5.210938 -3.914062 5.1875 -4.007812 5.125 -4.09375 C 5.070312 -4.175781 4.992188 -4.226562 4.890625 -4.25 L 2.78125 -4.609375 L 2.5625 -3.359375 Z M 4.671875 -3 "/></g></g></g><g fill="#ffffff" fill-opacity="1"><g transform="translate(127.576085, 180.760411)"><g><path d="M 5.734375 -5.09375 C 5.734375 -5.039062 5.710938 -4.992188 5.671875 -4.953125 C 5.640625 -4.921875 5.59375 -4.90625 5.53125 -4.90625 L 2.15625 -4.984375 L 2.125 -3.71875 L 5.1875 -3.640625 C 5.238281 -3.640625 5.28125 -3.617188 5.3125 -3.578125 C 5.351562 -3.546875 5.375 -3.503906 5.375 -3.453125 L 5.359375 -2.578125 C 5.359375 -2.523438 5.335938 -2.476562 5.296875 -2.4375 C 5.253906 -2.40625 5.207031 -2.390625 5.15625 -2.390625 L 2.09375 -2.46875 L 2.0625 -1.203125 L 5.4375 -1.125 C 5.5 -1.125 5.546875 -1.101562 5.578125 -1.0625 C 5.617188 -1.03125 5.640625 -0.984375 5.640625 -0.921875 L 5.609375 -0.078125 C 5.609375 -0.0234375 5.585938 0.0195312 5.546875 0.0625 C 5.515625 0.101562 5.46875 0.125 5.40625 0.125 L 0.96875 0.015625 C 0.90625 0.015625 0.851562 -0.00390625 0.8125 -0.046875 C 0.78125 -0.0859375 0.765625 -0.132812 0.765625 -0.1875 L 0.90625 -6.0625 C 0.90625 -6.113281 0.921875 -6.160156 0.953125 -6.203125 C 0.992188 -6.242188 1.046875 -6.265625 1.109375 -6.265625 L 5.546875 -6.15625 C 5.609375 -6.15625 5.65625 -6.132812 5.6875 -6.09375 C 5.726562 -6.050781 5.75 -6.003906 5.75 -5.953125 Z M 5.734375 -5.09375 "/></g></g></g><g fill="#ffffff" fill-opacity="1"><g transform="translate(137.119771, 180.744874)"><g><path d="M 4.90625 -5.890625 C 4.90625 -5.835938 4.890625 -5.789062 4.859375 -5.75 C 4.828125 -5.707031 4.78125 -5.679688 4.71875 -5.671875 L 1.375 -5.25 L 1.53125 -4 L 4.5625 -4.375 C 4.613281 -4.382812 4.660156 -4.375 4.703125 -4.34375 C 4.753906 -4.3125 4.785156 -4.269531 4.796875 -4.21875 L 4.90625 -3.359375 C 4.914062 -3.304688 4.898438 -3.257812 4.859375 -3.21875 C 4.828125 -3.175781 4.785156 -3.148438 4.734375 -3.140625 L 1.703125 -2.765625 L 1.859375 -1.5 L 5.203125 -1.921875 C 5.265625 -1.929688 5.316406 -1.921875 5.359375 -1.890625 C 5.398438 -1.859375 5.421875 -1.8125 5.421875 -1.75 L 5.53125 -0.921875 C 5.539062 -0.867188 5.53125 -0.816406 5.5 -0.765625 C 5.46875 -0.722656 5.421875 -0.695312 5.359375 -0.6875 L 0.953125 -0.125 C 0.898438 -0.113281 0.851562 -0.125 0.8125 -0.15625 C 0.769531 -0.195312 0.742188 -0.242188 0.734375 -0.296875 L 0 -6.125 C -0.0078125 -6.175781 0 -6.222656 0.03125 -6.265625 C 0.0625 -6.316406 0.101562 -6.347656 0.15625 -6.359375 L 4.5625 -6.921875 C 4.625 -6.929688 4.675781 -6.914062 4.71875 -6.875 C 4.757812 -6.84375 4.785156 -6.800781 4.796875 -6.75 Z M 4.90625 -5.890625 "/></g></g></g><g fill="#ffffff" fill-opacity="1"><g transform="translate(146.552803, 179.294261)"><g><path d="M 5.21875 -1.484375 L 1.09375 -0.3125 C 1.039062 -0.300781 0.988281 -0.304688 0.9375 -0.328125 C 0.894531 -0.359375 0.863281 -0.394531 0.84375 -0.4375 L -0.765625 -6.09375 C -0.773438 -6.144531 -0.769531 -6.195312 -0.75 -6.25 C -0.726562 -6.3125 -0.691406 -6.347656 -0.640625 -6.359375 L 0.1875 -6.59375 C 0.238281 -6.613281 0.289062 -6.609375 0.34375 -6.578125 C 0.40625 -6.546875 0.441406 -6.503906 0.453125 -6.453125 L 1.78125 -1.8125 L 4.875 -2.6875 C 4.925781 -2.707031 4.972656 -2.703125 5.015625 -2.671875 C 5.066406 -2.648438 5.101562 -2.609375 5.125 -2.546875 L 5.34375 -1.734375 C 5.363281 -1.691406 5.359375 -1.644531 5.328125 -1.59375 C 5.304688 -1.539062 5.269531 -1.503906 5.21875 -1.484375 Z M 5.21875 -1.484375 "/></g></g></g><g fill="#ffffff" fill-opacity="1"><g transform="translate(155.669252, 176.438356)"><g><path d="M 1.0625 -7.390625 C 1.113281 -7.410156 1.164062 -7.414062 1.21875 -7.40625 C 1.28125 -7.394531 1.335938 -7.375 1.390625 -7.34375 L 3.9375 -4.90625 C 3.976562 -4.875 4.019531 -4.820312 4.0625 -4.75 C 4.113281 -4.6875 4.148438 -4.632812 4.171875 -4.59375 L 5.109375 -2.5625 C 5.128906 -2.507812 5.128906 -2.457031 5.109375 -2.40625 C 5.085938 -2.351562 5.050781 -2.316406 5 -2.296875 L 4.21875 -1.9375 C 4.164062 -1.914062 4.113281 -1.910156 4.0625 -1.921875 C 4.007812 -1.941406 3.972656 -1.976562 3.953125 -2.03125 L 3.515625 -2.984375 L 1.25 -1.953125 L 1.6875 -1 C 1.707031 -0.945312 1.703125 -0.890625 1.671875 -0.828125 C 1.648438 -0.773438 1.617188 -0.738281 1.578125 -0.71875 L 0.796875 -0.359375 C 0.742188 -0.335938 0.691406 -0.335938 0.640625 -0.359375 C 0.585938 -0.378906 0.550781 -0.414062 0.53125 -0.46875 L -0.40625 -2.5 C -0.425781 -2.539062 -0.441406 -2.597656 -0.453125 -2.671875 C -0.472656 -2.753906 -0.484375 -2.820312 -0.484375 -2.875 L -0.65625 -6.40625 C -0.664062 -6.457031 -0.648438 -6.507812 -0.609375 -6.5625 C -0.578125 -6.613281 -0.539062 -6.648438 -0.5 -6.671875 Z M 0.75 -3.109375 L 2.9375 -4.109375 L 0.984375 -5.984375 L 0.625 -5.828125 Z M 0.75 -3.109375 "/></g></g></g><g fill="#ffffff" fill-opacity="1"><g transform="translate(164.251906, 172.242636)"><g><path d="M 0.375 -7.515625 C 0.34375 -7.554688 0.332031 -7.601562 0.34375 -7.65625 C 0.351562 -7.71875 0.378906 -7.765625 0.421875 -7.796875 L 1.140625 -8.265625 C 1.179688 -8.296875 1.234375 -8.300781 1.296875 -8.28125 C 1.359375 -8.269531 1.40625 -8.242188 1.4375 -8.203125 L 4.65625 -3.296875 C 4.6875 -3.253906 4.691406 -3.203125 4.671875 -3.140625 C 4.660156 -3.085938 4.632812 -3.046875 4.59375 -3.015625 L 3.875 -2.546875 C 3.832031 -2.515625 3.78125 -2.503906 3.71875 -2.515625 C 3.664062 -2.535156 3.625 -2.566406 3.59375 -2.609375 L 2.421875 -4.390625 L -0.890625 -4.90625 L 1.515625 -1.234375 C 1.546875 -1.191406 1.550781 -1.140625 1.53125 -1.078125 C 1.519531 -1.023438 1.492188 -0.984375 1.453125 -0.953125 L 0.734375 -0.484375 C 0.691406 -0.453125 0.640625 -0.441406 0.578125 -0.453125 C 0.523438 -0.472656 0.484375 -0.503906 0.453125 -0.546875 L -2.765625 -5.453125 C -2.796875 -5.492188 -2.804688 -5.539062 -2.796875 -5.59375 C -2.785156 -5.65625 -2.757812 -5.703125 -2.71875 -5.734375 L -2 -6.203125 C -1.957031 -6.234375 -1.898438 -6.253906 -1.828125 -6.265625 C -1.753906 -6.285156 -1.691406 -6.289062 -1.640625 -6.28125 L 1.484375 -5.8125 Z M 0.375 -7.515625 "/></g></g></g><g fill="#ffffff" fill-opacity="1"><g transform="translate(172.105144, 166.802731)"><g><path d="M 0.53125 -6.375 C 0.476562 -6.332031 0.425781 -6.3125 0.375 -6.3125 C 0.320312 -6.320312 0.28125 -6.347656 0.25 -6.390625 L 0.203125 -6.4375 C 0.128906 -6.507812 0.046875 -6.550781 -0.046875 -6.5625 C -0.148438 -6.570312 -0.242188 -6.539062 -0.328125 -6.46875 L -1.65625 -5.28125 C -1.726562 -5.21875 -1.765625 -5.132812 -1.765625 -5.03125 C -1.773438 -4.925781 -1.742188 -4.835938 -1.671875 -4.765625 L 0.359375 -2.5 C 0.421875 -2.425781 0.503906 -2.382812 0.609375 -2.375 C 0.710938 -2.375 0.800781 -2.40625 0.875 -2.46875 L 2.203125 -3.65625 C 2.285156 -3.726562 2.328125 -3.8125 2.328125 -3.90625 C 2.328125 -4.007812 2.296875 -4.097656 2.234375 -4.171875 L 2.1875 -4.21875 C 2.144531 -4.257812 2.125 -4.304688 2.125 -4.359375 C 2.125 -4.421875 2.148438 -4.472656 2.203125 -4.515625 L 2.828125 -5.078125 C 2.867188 -5.117188 2.914062 -5.132812 2.96875 -5.125 C 3.03125 -5.125 3.082031 -5.101562 3.125 -5.0625 L 3.171875 -5.015625 C 3.316406 -4.847656 3.421875 -4.660156 3.484375 -4.453125 C 3.554688 -4.253906 3.585938 -4.050781 3.578125 -3.84375 C 3.566406 -3.644531 3.515625 -3.445312 3.421875 -3.25 C 3.335938 -3.050781 3.207031 -2.875 3.03125 -2.71875 L 1.703125 -1.53125 C 1.546875 -1.382812 1.363281 -1.273438 1.15625 -1.203125 C 0.945312 -1.140625 0.738281 -1.113281 0.53125 -1.125 C 0.332031 -1.132812 0.132812 -1.179688 -0.0625 -1.265625 C -0.257812 -1.359375 -0.429688 -1.488281 -0.578125 -1.65625 L -2.609375 -3.921875 C -2.765625 -4.085938 -2.875 -4.269531 -2.9375 -4.46875 C -3 -4.675781 -3.023438 -4.882812 -3.015625 -5.09375 C -3.015625 -5.300781 -2.96875 -5.5 -2.875 -5.6875 C -2.78125 -5.882812 -2.65625 -6.054688 -2.5 -6.203125 L -1.171875 -7.390625 C -0.992188 -7.546875 -0.800781 -7.660156 -0.59375 -7.734375 C -0.394531 -7.804688 -0.191406 -7.832031 0.015625 -7.8125 C 0.222656 -7.800781 0.421875 -7.75 0.609375 -7.65625 C 0.804688 -7.570312 0.984375 -7.445312 1.140625 -7.28125 L 1.1875 -7.234375 C 1.21875 -7.191406 1.226562 -7.140625 1.21875 -7.078125 C 1.21875 -7.023438 1.195312 -6.976562 1.15625 -6.9375 Z M 0.53125 -6.375 "/></g></g></g><g fill="#ffffff" fill-opacity="1"><g transform="translate(179.048887, 160.241508)"><g><path d="M -0.46875 -7.640625 C -0.425781 -7.609375 -0.40625 -7.566406 -0.40625 -7.515625 C -0.40625 -7.460938 -0.421875 -7.410156 -0.453125 -7.359375 L -2.59375 -4.75 L -1.609375 -3.953125 L 0.328125 -6.328125 C 0.359375 -6.367188 0.398438 -6.394531 0.453125 -6.40625 C 0.503906 -6.414062 0.550781 -6.398438 0.59375 -6.359375 L 1.265625 -5.8125 C 1.304688 -5.78125 1.328125 -5.734375 1.328125 -5.671875 C 1.335938 -5.617188 1.328125 -5.570312 1.296875 -5.53125 L -0.640625 -3.15625 L 0.328125 -2.359375 L 2.46875 -4.96875 C 2.5 -5.019531 2.539062 -5.046875 2.59375 -5.046875 C 2.65625 -5.046875 2.707031 -5.03125 2.75 -5 L 3.40625 -4.453125 C 3.445312 -4.421875 3.46875 -4.378906 3.46875 -4.328125 C 3.476562 -4.273438 3.46875 -4.222656 3.4375 -4.171875 L 0.609375 -0.75 C 0.578125 -0.695312 0.53125 -0.671875 0.46875 -0.671875 C 0.414062 -0.671875 0.367188 -0.6875 0.328125 -0.71875 L -4.21875 -4.453125 C -4.25 -4.484375 -4.269531 -4.523438 -4.28125 -4.578125 C -4.289062 -4.628906 -4.28125 -4.679688 -4.25 -4.734375 L -1.421875 -8.15625 C -1.390625 -8.207031 -1.34375 -8.234375 -1.28125 -8.234375 C -1.21875 -8.234375 -1.171875 -8.21875 -1.140625 -8.1875 Z M -0.46875 -7.640625 "/></g></g></g><g fill="#ffffff" fill-opacity="1"><g transform="translate(184.922854, 152.719768)"><g><path d="M 2.71875 -4.90625 C 2.769531 -4.914062 2.804688 -4.898438 2.828125 -4.859375 C 2.847656 -4.816406 2.84375 -4.769531 2.8125 -4.71875 L 2.3125 -3.875 C 2.28125 -3.832031 2.234375 -3.796875 2.171875 -3.765625 C 2.117188 -3.742188 2.066406 -3.734375 2.015625 -3.734375 L -0.53125 -4.015625 L -1.171875 -2.953125 L 0.8125 -1.78125 C 0.851562 -1.75 0.882812 -1.707031 0.90625 -1.65625 C 0.925781 -1.601562 0.921875 -1.546875 0.890625 -1.484375 L 0.453125 -0.75 C 0.421875 -0.707031 0.375 -0.675781 0.3125 -0.65625 C 0.257812 -0.644531 0.210938 -0.65625 0.171875 -0.6875 L -4.875 -3.6875 C -4.925781 -3.71875 -4.957031 -3.757812 -4.96875 -3.8125 C -4.976562 -3.875 -4.96875 -3.925781 -4.9375 -3.96875 L -3.3125 -6.71875 C -3.1875 -6.914062 -3.039062 -7.078125 -2.875 -7.203125 C -2.707031 -7.328125 -2.519531 -7.414062 -2.3125 -7.46875 C -2.113281 -7.519531 -1.90625 -7.53125 -1.6875 -7.5 C -1.476562 -7.476562 -1.273438 -7.40625 -1.078125 -7.28125 L -0.625 -7.015625 C -0.46875 -6.921875 -0.332031 -6.800781 -0.21875 -6.65625 C -0.101562 -6.519531 -0.015625 -6.375 0.046875 -6.21875 C 0.109375 -6.0625 0.144531 -5.894531 0.15625 -5.71875 C 0.164062 -5.539062 0.144531 -5.367188 0.09375 -5.203125 Z M -1.15625 -5.421875 C -1.09375 -5.515625 -1.070312 -5.609375 -1.09375 -5.703125 C -1.113281 -5.804688 -1.171875 -5.882812 -1.265625 -5.9375 L -1.71875 -6.203125 C -1.8125 -6.265625 -1.90625 -6.28125 -2 -6.25 C -2.101562 -6.226562 -2.1875 -6.171875 -2.25 -6.078125 L -3.34375 -4.25 L -2.25 -3.59375 Z M -1.15625 -5.421875 "/></g></g></g></svg>